<mxfile host="app.diagrams.net" modified="2023-12-26T08:26:53.819Z" agent="Mozilla/5.0 (Windows NT 10.0; Win64; x64) AppleWebKit/537.36 (KHTML, like Gecko) Chrome/120.0.0.0 Safari/537.36" version="22.1.11" etag="RSj_iMKrl9mx3sTSaYSa" type="device">
  <diagram id="Q910jsrseGp028aidezo" name="Page-1">
    <mxGraphModel dx="1389" dy="514" grid="0" gridSize="10" guides="1" tooltips="1" connect="1" arrows="1" fold="1" page="0" pageScale="1" pageWidth="1100" pageHeight="850" background="#ffffff" math="0" shadow="0">
      <root>
        <mxCell id="0" />
        <mxCell id="1" parent="0" />
        <mxCell id="2" value="&lt;font color=&quot;#000000&quot;&gt;Google Ads API&lt;/font&gt;" style="rounded=0;whiteSpace=wrap;html=1;fillColor=#f9f7ed;strokeColor=#36393d;" parent="1" vertex="1">
          <mxGeometry x="-40" y="20" width="120" height="60" as="geometry" />
        </mxCell>
        <mxCell id="3" value="&lt;font color=&quot;#000000&quot;&gt;Raw Data (.csv)&lt;/font&gt;" style="rounded=0;whiteSpace=wrap;html=1;flipH=1;flipV=0;fillColor=#F9F7ED;strokeColor=#36393d;" parent="1" vertex="1">
          <mxGeometry x="-40" y="270" width="120" height="60" as="geometry" />
        </mxCell>
        <mxCell id="4" value="&lt;font color=&quot;#000000&quot;&gt;Scrapy Python&amp;nbsp;&lt;/font&gt;" style="rounded=1;whiteSpace=wrap;html=1;fillColor=#F9F7ED;strokeColor=#36393d;" parent="1" vertex="1">
          <mxGeometry x="-35" y="140" width="110" height="60" as="geometry" />
        </mxCell>
        <mxCell id="6" value="&lt;font color=&quot;#000000&quot;&gt;&lt;span style=&quot;background-color: rgb(255, 255, 255);&quot;&gt;crawl data&lt;/span&gt;&lt;/font&gt;" style="endArrow=classic;html=1;exitX=0.5;exitY=1;exitDx=0;exitDy=0;entryX=0.5;entryY=0;entryDx=0;entryDy=0;strokeColor=#000000;" parent="1" source="2" target="4" edge="1">
          <mxGeometry x="-0.0667" width="50" height="50" relative="1" as="geometry">
            <mxPoint x="520" y="100" as="sourcePoint" />
            <mxPoint x="570" y="50" as="targetPoint" />
            <mxPoint as="offset" />
          </mxGeometry>
        </mxCell>
        <mxCell id="7" value="&lt;span style=&quot;background-color: rgb(255, 255, 255);&quot;&gt;&lt;font color=&quot;#000000&quot;&gt;save files&lt;/font&gt;&lt;/span&gt;" style="endArrow=classic;html=1;entryX=0.5;entryY=0;entryDx=0;entryDy=0;exitX=0.5;exitY=1;exitDx=0;exitDy=0;strokeColor=#000000;" parent="1" source="4" target="3" edge="1">
          <mxGeometry width="50" height="50" relative="1" as="geometry">
            <mxPoint x="400" y="70" as="sourcePoint" />
            <mxPoint x="440" y="60" as="targetPoint" />
            <mxPoint as="offset" />
          </mxGeometry>
        </mxCell>
        <mxCell id="8" value="&lt;font color=&quot;#000000&quot; face=&quot;Times New Roman&quot;&gt;Temporary folder&lt;/font&gt;" style="rounded=0;whiteSpace=wrap;html=1;fillColor=#F9F7ED;strokeColor=#36393d;" parent="1" vertex="1">
          <mxGeometry x="-40" y="410" width="120" height="60" as="geometry" />
        </mxCell>
        <mxCell id="9" value="&lt;font style=&quot;background-color: rgb(255, 255, 255);&quot; color=&quot;#000000&quot;&gt;store in&lt;/font&gt;" style="endArrow=classic;html=1;exitX=0.5;exitY=1;exitDx=0;exitDy=0;entryX=0.5;entryY=0;entryDx=0;entryDy=0;strokeColor=#000000;" parent="1" source="3" target="8" edge="1">
          <mxGeometry width="50" height="50" relative="1" as="geometry">
            <mxPoint x="390" y="140" as="sourcePoint" />
            <mxPoint x="440" y="90" as="targetPoint" />
            <mxPoint as="offset" />
          </mxGeometry>
        </mxCell>
        <mxCell id="10" value="&lt;font style=&quot;background-color: rgb(255, 255, 255);&quot; color=&quot;#000000&quot;&gt;load into&lt;/font&gt;" style="endArrow=classic;html=1;exitX=1;exitY=0.5;exitDx=0;exitDy=0;entryX=0;entryY=0.5;entryDx=0;entryDy=0;strokeColor=#000000;" parent="1" source="8" target="18" edge="1">
          <mxGeometry width="50" height="50" relative="1" as="geometry">
            <mxPoint x="410" y="160" as="sourcePoint" />
            <mxPoint x="310" y="470" as="targetPoint" />
          </mxGeometry>
        </mxCell>
        <mxCell id="13" value="&lt;font style=&quot;background-color: rgb(238, 238, 238);&quot; color=&quot;#000000&quot;&gt;Python&lt;/font&gt;" style="rounded=0;whiteSpace=wrap;html=1;fontFamily=Times New Roman;fillColor=#F9F7ED;strokeColor=#36393d;" parent="1" vertex="1">
          <mxGeometry x="601" y="417.5" width="92" height="45" as="geometry" />
        </mxCell>
        <mxCell id="16" value="" style="endArrow=classic;html=1;fontFamily=Times New Roman;entryX=0;entryY=0.5;entryDx=0;entryDy=0;exitX=1;exitY=0.5;exitDx=0;exitDy=0;strokeColor=#000000;" parent="1" source="19" target="13" edge="1">
          <mxGeometry width="50" height="50" relative="1" as="geometry">
            <mxPoint x="550" y="360" as="sourcePoint" />
            <mxPoint x="510" y="200" as="targetPoint" />
          </mxGeometry>
        </mxCell>
        <mxCell id="17" value="Pentaho job" style="swimlane;whiteSpace=wrap;html=1;fontFamily=Times New Roman;strokeColor=#000000;" parent="1" vertex="1">
          <mxGeometry x="200" y="280" width="340" height="280" as="geometry" />
        </mxCell>
        <mxCell id="20" value="&lt;font style=&quot;background-color: rgb(255, 255, 255);&quot; color=&quot;#000000&quot;&gt;load into&lt;/font&gt;" style="edgeStyle=none;html=1;fontFamily=Times New Roman;entryX=0;entryY=0.5;entryDx=0;entryDy=0;exitX=1;exitY=0.5;exitDx=0;exitDy=0;strokeColor=#000000;" parent="17" source="18" target="19" edge="1">
          <mxGeometry relative="1" as="geometry" />
        </mxCell>
        <mxCell id="22" value="&lt;font style=&quot;background-color: rgb(255, 255, 255);&quot; color=&quot;#000000&quot;&gt;load into&lt;/font&gt;" style="edgeStyle=none;html=1;fontFamily=Times New Roman;entryX=0;entryY=0.5;entryDx=0;entryDy=0;exitX=1;exitY=0.5;exitDx=0;exitDy=0;exitPerimeter=0;strokeColor=#000000;" parent="17" source="18" target="21" edge="1">
          <mxGeometry relative="1" as="geometry" />
        </mxCell>
        <mxCell id="24" value="&lt;font style=&quot;background-color: rgb(255, 255, 255);&quot; color=&quot;#000000&quot;&gt;load into&lt;/font&gt;" style="edgeStyle=none;html=1;fontFamily=Times New Roman;entryX=0;entryY=0.5;entryDx=0;entryDy=0;exitX=1;exitY=0.5;exitDx=0;exitDy=0;strokeColor=#000000;" parent="17" source="18" target="25" edge="1">
          <mxGeometry relative="1" as="geometry" />
        </mxCell>
        <mxCell id="18" value="&lt;font color=&quot;#000000&quot;&gt;ETL Process&lt;/font&gt;" style="rounded=0;whiteSpace=wrap;html=1;fontFamily=Times New Roman;fillColor=#F9F7ED;strokeColor=#36393d;" parent="17" vertex="1">
          <mxGeometry x="24" y="135" width="100" height="50" as="geometry" />
        </mxCell>
        <mxCell id="19" value="&lt;font color=&quot;#000000&quot;&gt;Output file (.csv)&lt;/font&gt;" style="whiteSpace=wrap;html=1;fontFamily=Times New Roman;rounded=0;fillColor=#F9F7ED;strokeColor=#36393d;" parent="17" vertex="1">
          <mxGeometry x="200" y="71" width="100" height="39" as="geometry" />
        </mxCell>
        <mxCell id="21" value="&lt;span style=&quot;font-family: &amp;quot;Times New Roman&amp;quot;; font-size: 12px; font-style: normal; font-variant-ligatures: normal; font-variant-caps: normal; font-weight: 400; letter-spacing: normal; orphans: 2; text-align: center; text-indent: 0px; text-transform: none; widows: 2; word-spacing: 0px; -webkit-text-stroke-width: 0px; text-decoration-thickness: initial; text-decoration-style: initial; text-decoration-color: initial; float: none; display: inline !important; background-color: rgb(238, 238, 238);&quot;&gt;&lt;font style=&quot;&quot; color=&quot;#000000&quot;&gt;Output file (.csv)&lt;/font&gt;&lt;/span&gt;" style="whiteSpace=wrap;html=1;fontFamily=Times New Roman;rounded=0;fillColor=#F9F7ED;strokeColor=#36393d;" parent="17" vertex="1">
          <mxGeometry x="201" y="139" width="98" height="42" as="geometry" />
        </mxCell>
        <mxCell id="25" value="&lt;span style=&quot;font-family: &amp;quot;Times New Roman&amp;quot;; font-size: 12px; font-style: normal; font-variant-ligatures: normal; font-variant-caps: normal; font-weight: 400; letter-spacing: normal; orphans: 2; text-align: center; text-indent: 0px; text-transform: none; widows: 2; word-spacing: 0px; -webkit-text-stroke-width: 0px; text-decoration-thickness: initial; text-decoration-style: initial; text-decoration-color: initial; float: none; display: inline !important; background-color: rgb(238, 238, 238);&quot;&gt;&lt;font style=&quot;&quot; color=&quot;#000000&quot;&gt;Output file (.csv)&lt;/font&gt;&lt;/span&gt;" style="whiteSpace=wrap;html=1;fontFamily=Times New Roman;rounded=0;fillColor=#F9F7ED;strokeColor=#36393d;" parent="17" vertex="1">
          <mxGeometry x="201" y="212" width="99" height="40" as="geometry" />
        </mxCell>
        <mxCell id="26" value="" style="endArrow=classic;html=1;fontFamily=Times New Roman;exitX=1;exitY=0.5;exitDx=0;exitDy=0;entryX=0;entryY=0.5;entryDx=0;entryDy=0;strokeColor=#000000;" parent="1" source="21" target="13" edge="1">
          <mxGeometry width="50" height="50" relative="1" as="geometry">
            <mxPoint x="530" y="360" as="sourcePoint" />
            <mxPoint x="740" y="420" as="targetPoint" />
          </mxGeometry>
        </mxCell>
        <mxCell id="27" value="" style="endArrow=classic;html=1;fontFamily=Times New Roman;exitX=1;exitY=0.5;exitDx=0;exitDy=0;entryX=0;entryY=0.5;entryDx=0;entryDy=0;strokeColor=#000000;" parent="1" source="25" target="13" edge="1">
          <mxGeometry width="50" height="50" relative="1" as="geometry">
            <mxPoint x="540" y="370" as="sourcePoint" />
            <mxPoint x="740" y="420" as="targetPoint" />
          </mxGeometry>
        </mxCell>
        <mxCell id="6OS9gB6oRCeVG4FmEy4N-27" value="&lt;font style=&quot;background-color: rgb(238, 238, 238);&quot; color=&quot;#000000&quot;&gt;MySQL Database&lt;/font&gt;" style="rounded=0;whiteSpace=wrap;html=1;fontFamily=Times New Roman;fillColor=#F9F7ED;strokeColor=#36393d;" vertex="1" parent="1">
          <mxGeometry x="787" y="420" width="83" height="40" as="geometry" />
        </mxCell>
        <mxCell id="6OS9gB6oRCeVG4FmEy4N-28" value="&lt;font style=&quot;background-color: rgb(255, 255, 255);&quot; color=&quot;#000000&quot;&gt;load into&lt;/font&gt;" style="endArrow=classic;html=1;fontFamily=Times New Roman;entryX=0;entryY=0.5;entryDx=0;entryDy=0;exitX=1;exitY=0.5;exitDx=0;exitDy=0;strokeColor=#000000;" edge="1" parent="1" source="13" target="6OS9gB6oRCeVG4FmEy4N-27">
          <mxGeometry width="50" height="50" relative="1" as="geometry">
            <mxPoint x="520" y="375" as="sourcePoint" />
            <mxPoint x="633" y="450" as="targetPoint" />
          </mxGeometry>
        </mxCell>
      </root>
    </mxGraphModel>
  </diagram>
</mxfile>
